<svg width="254" height="49" viewBox="0 0 254 49" fill="none" xmlns="http://www.w3.org/2000/svg">
<path d="M16.0049 10.4936L23.0469 22.8142L8.9629 22.8142L16.0049 10.4936Z" fill="#1E8DEA"/>
<path d="M8.96291 22.812L23.0469 22.812L16.0072 35.1326L8.96291 22.812Z" fill="#48AEFF"/>
<path d="M14.0883 38.4939L0.00434162 38.4939L8.96812 22.8119L16.0078 35.1325L14.0883 38.4939Z" fill="#BCE0FF"/>
<path d="M17.9238 38.4939L16.0043 35.1325L23.044 22.8119L32.0078 38.4939L17.9238 38.4939Z" fill="#8CCCFF"/>
<path d="M32.0029 38.5064L24.9609 26.1858H39.0449L32.0029 38.5064Z" fill="#1E8DEA"/>
<path d="M39.0449 26.188H24.9609L32.0006 13.8674L39.0449 26.188Z" fill="#48AEFF"/>
<path d="M33.9195 10.5061L48.0035 10.5061L39.0397 26.1881L32 13.8675L33.9195 10.5061Z" fill="#BCE0FF"/>
<path d="M30.0762 10.5061L31.9957 13.8675L24.956 26.1881L15.9922 10.5061L30.0762 10.5061Z" fill="#8CCCFF"/>
<path d="M57.728 34V16.12H60.272L70.112 29.368L68.792 29.632V16.12H72.056V34H69.488L59.792 20.656L60.992 20.392V34H57.728ZM79.2131 34.288C78.3011 34.288 77.5091 34.136 76.8371 33.832C76.1651 33.528 75.6451 33.096 75.2771 32.536C74.9091 31.96 74.7251 31.296 74.7251 30.544C74.7251 29.824 74.8851 29.184 75.2051 28.624C75.5251 28.048 76.0211 27.568 76.6931 27.184C77.3651 26.8 78.2131 26.528 79.2371 26.368L83.5091 25.672V28.072L79.8371 28.696C79.2131 28.808 78.7491 29.008 78.4451 29.296C78.1411 29.584 77.9891 29.96 77.9891 30.424C77.9891 30.872 78.1571 31.232 78.4931 31.504C78.8451 31.76 79.2771 31.888 79.7891 31.888C80.4451 31.888 81.0211 31.752 81.5171 31.48C82.0291 31.192 82.4211 30.8 82.6931 30.304C82.9811 29.808 83.1251 29.264 83.1251 28.672V25.312C83.1251 24.752 82.9011 24.288 82.4531 23.92C82.0211 23.536 81.4451 23.344 80.7251 23.344C80.0531 23.344 79.4531 23.528 78.9251 23.896C78.4131 24.248 78.0371 24.72 77.7971 25.312L75.2291 24.064C75.4851 23.376 75.8851 22.784 76.4291 22.288C76.9891 21.776 77.6451 21.376 78.3971 21.088C79.1491 20.8 79.9651 20.656 80.8451 20.656C81.9171 20.656 82.8611 20.856 83.6771 21.256C84.4931 21.64 85.1251 22.184 85.5731 22.888C86.0371 23.576 86.2691 24.384 86.2691 25.312V34H83.2931V31.768L83.9651 31.72C83.6291 32.28 83.2291 32.752 82.7651 33.136C82.3011 33.504 81.7731 33.792 81.1811 34C80.5891 34.192 79.9331 34.288 79.2131 34.288ZM89.1749 34V20.944H92.1269V23.968L91.7909 23.464C92.0309 22.52 92.5109 21.816 93.2309 21.352C93.9509 20.888 94.7989 20.656 95.7749 20.656C96.8469 20.656 97.7909 20.936 98.6069 21.496C99.4229 22.056 99.9509 22.792 100.191 23.704L99.3029 23.776C99.7029 22.736 100.303 21.96 101.103 21.448C101.903 20.92 102.823 20.656 103.863 20.656C104.791 20.656 105.615 20.864 106.335 21.28C107.071 21.696 107.647 22.28 108.063 23.032C108.479 23.768 108.687 24.624 108.687 25.6V34H105.543V26.344C105.543 25.768 105.439 25.272 105.231 24.856C105.023 24.44 104.735 24.12 104.367 23.896C103.999 23.656 103.551 23.536 103.023 23.536C102.527 23.536 102.087 23.656 101.703 23.896C101.319 24.12 101.023 24.44 100.815 24.856C100.607 25.272 100.503 25.768 100.503 26.344V34H97.3589V26.344C97.3589 25.768 97.2549 25.272 97.0469 24.856C96.8389 24.44 96.5429 24.12 96.1589 23.896C95.7909 23.656 95.3509 23.536 94.8389 23.536C94.3429 23.536 93.9029 23.656 93.5189 23.896C93.1349 24.12 92.8389 24.44 92.6309 24.856C92.4229 25.272 92.3189 25.768 92.3189 26.344V34H89.1749ZM117.539 34.288C116.195 34.288 115.019 33.984 114.011 33.376C113.003 32.768 112.219 31.944 111.659 30.904C111.099 29.864 110.819 28.712 110.819 27.448C110.819 26.136 111.099 24.976 111.659 23.968C112.235 22.944 113.011 22.136 113.987 21.544C114.979 20.952 116.083 20.656 117.299 20.656C118.323 20.656 119.219 20.824 119.987 21.16C120.771 21.496 121.435 21.96 121.979 22.552C122.523 23.144 122.939 23.824 123.227 24.592C123.515 25.344 123.659 26.16 123.659 27.04C123.659 27.264 123.643 27.496 123.611 27.736C123.595 27.976 123.555 28.184 123.491 28.36H113.411V25.96H121.715L120.227 27.088C120.371 26.352 120.331 25.696 120.107 25.12C119.899 24.544 119.547 24.088 119.051 23.752C118.571 23.416 117.987 23.248 117.299 23.248C116.643 23.248 116.059 23.416 115.547 23.752C115.035 24.072 114.643 24.552 114.371 25.192C114.115 25.816 114.019 26.576 114.083 27.472C114.019 28.272 114.123 28.984 114.395 29.608C114.683 30.216 115.099 30.688 115.643 31.024C116.203 31.36 116.843 31.528 117.563 31.528C118.283 31.528 118.891 31.376 119.387 31.072C119.899 30.768 120.299 30.36 120.587 29.848L123.131 31.096C122.875 31.72 122.475 32.272 121.931 32.752C121.387 33.232 120.739 33.608 119.987 33.88C119.251 34.152 118.435 34.288 117.539 34.288ZM133.17 34.288C132.226 34.288 131.354 34.104 130.554 33.736C129.77 33.352 129.146 32.808 128.682 32.104L128.994 31.48V34H126.042V15.832H129.186V23.536L128.706 22.888C129.154 22.184 129.762 21.64 130.53 21.256C131.298 20.856 132.186 20.656 133.194 20.656C134.426 20.656 135.538 20.96 136.53 21.568C137.522 22.176 138.306 22.992 138.882 24.016C139.474 25.04 139.77 26.192 139.77 27.472C139.77 28.736 139.482 29.888 138.906 30.928C138.33 31.968 137.546 32.792 136.554 33.4C135.562 33.992 134.434 34.288 133.17 34.288ZM132.81 31.408C133.53 31.408 134.17 31.24 134.73 30.904C135.29 30.568 135.722 30.104 136.026 29.512C136.346 28.92 136.506 28.24 136.506 27.472C136.506 26.704 136.346 26.032 136.026 25.456C135.722 24.864 135.29 24.4 134.73 24.064C134.17 23.712 133.53 23.536 132.81 23.536C132.122 23.536 131.498 23.704 130.938 24.04C130.394 24.376 129.962 24.848 129.642 25.456C129.338 26.048 129.186 26.72 129.186 27.472C129.186 28.24 129.338 28.92 129.642 29.512C129.962 30.104 130.394 30.568 130.938 30.904C131.498 31.24 132.122 31.408 132.81 31.408ZM146.127 34.288C145.215 34.288 144.423 34.136 143.751 33.832C143.079 33.528 142.559 33.096 142.191 32.536C141.823 31.96 141.639 31.296 141.639 30.544C141.639 29.824 141.799 29.184 142.119 28.624C142.439 28.048 142.935 27.568 143.607 27.184C144.279 26.8 145.127 26.528 146.151 26.368L150.423 25.672V28.072L146.751 28.696C146.127 28.808 145.663 29.008 145.359 29.296C145.055 29.584 144.903 29.96 144.903 30.424C144.903 30.872 145.071 31.232 145.407 31.504C145.759 31.76 146.191 31.888 146.703 31.888C147.359 31.888 147.935 31.752 148.431 31.48C148.943 31.192 149.335 30.8 149.607 30.304C149.895 29.808 150.039 29.264 150.039 28.672V25.312C150.039 24.752 149.815 24.288 149.367 23.92C148.935 23.536 148.359 23.344 147.639 23.344C146.967 23.344 146.367 23.528 145.839 23.896C145.327 24.248 144.951 24.72 144.711 25.312L142.143 24.064C142.399 23.376 142.799 22.784 143.343 22.288C143.903 21.776 144.559 21.376 145.311 21.088C146.063 20.8 146.879 20.656 147.759 20.656C148.831 20.656 149.775 20.856 150.591 21.256C151.407 21.64 152.039 22.184 152.487 22.888C152.951 23.576 153.183 24.384 153.183 25.312V34H150.207V31.768L150.879 31.72C150.543 32.28 150.143 32.752 149.679 33.136C149.215 33.504 148.687 33.792 148.095 34C147.503 34.192 146.847 34.288 146.127 34.288ZM162.161 34.288C160.897 34.288 159.769 33.992 158.777 33.4C157.785 32.792 157.001 31.968 156.425 30.928C155.849 29.888 155.561 28.736 155.561 27.472C155.561 26.192 155.849 25.04 156.425 24.016C157.001 22.992 157.785 22.176 158.777 21.568C159.785 20.96 160.905 20.656 162.137 20.656C163.129 20.656 164.009 20.856 164.777 21.256C165.561 21.64 166.177 22.184 166.625 22.888L166.145 23.536V15.832H169.289V34H166.313V31.48L166.649 32.104C166.201 32.808 165.577 33.352 164.777 33.736C163.977 34.104 163.105 34.288 162.161 34.288ZM162.497 31.408C163.217 31.408 163.849 31.24 164.393 30.904C164.937 30.568 165.361 30.104 165.665 29.512C165.985 28.92 166.145 28.24 166.145 27.472C166.145 26.72 165.985 26.048 165.665 25.456C165.361 24.848 164.937 24.376 164.393 24.04C163.849 23.704 163.217 23.536 162.497 23.536C161.793 23.536 161.161 23.712 160.601 24.064C160.041 24.4 159.601 24.864 159.281 25.456C158.977 26.032 158.825 26.704 158.825 27.472C158.825 28.24 158.977 28.92 159.281 29.512C159.601 30.104 160.041 30.568 160.601 30.904C161.161 31.24 161.793 31.408 162.497 31.408ZM178.55 39.28C177.574 39.28 176.67 39.12 175.838 38.8C175.006 38.48 174.286 38.032 173.678 37.456C173.086 36.896 172.654 36.232 172.382 35.464L175.31 34.36C175.502 34.968 175.878 35.456 176.438 35.824C177.014 36.208 177.718 36.4 178.55 36.4C179.19 36.4 179.75 36.28 180.23 36.04C180.726 35.8 181.11 35.448 181.382 34.984C181.654 34.536 181.79 33.992 181.79 33.352V30.376L182.39 31.096C181.942 31.88 181.342 32.472 180.59 32.872C179.838 33.272 178.982 33.472 178.022 33.472C176.806 33.472 175.718 33.192 174.758 32.632C173.798 32.072 173.046 31.304 172.502 30.328C171.958 29.352 171.686 28.256 171.686 27.04C171.686 25.808 171.958 24.712 172.502 23.752C173.046 22.792 173.79 22.04 174.734 21.496C175.678 20.936 176.75 20.656 177.95 20.656C178.926 20.656 179.782 20.864 180.518 21.28C181.27 21.68 181.894 22.264 182.39 23.032L181.958 23.824V20.944H184.934V33.352C184.934 34.488 184.654 35.504 184.094 36.4C183.55 37.296 182.798 38 181.838 38.512C180.894 39.024 179.798 39.28 178.55 39.28ZM178.406 30.568C179.078 30.568 179.662 30.424 180.158 30.136C180.67 29.832 181.07 29.416 181.358 28.888C181.646 28.36 181.79 27.752 181.79 27.064C181.79 26.392 181.638 25.792 181.334 25.264C181.046 24.72 180.646 24.296 180.134 23.992C179.638 23.688 179.062 23.536 178.406 23.536C177.75 23.536 177.158 23.688 176.63 23.992C176.102 24.296 175.686 24.72 175.382 25.264C175.094 25.792 174.95 26.392 174.95 27.064C174.95 27.736 175.094 28.336 175.382 28.864C175.686 29.392 176.094 29.808 176.606 30.112C177.134 30.416 177.734 30.568 178.406 30.568ZM194.062 34.288C192.718 34.288 191.542 33.984 190.534 33.376C189.526 32.768 188.742 31.944 188.182 30.904C187.622 29.864 187.342 28.712 187.342 27.448C187.342 26.136 187.622 24.976 188.182 23.968C188.758 22.944 189.534 22.136 190.51 21.544C191.502 20.952 192.606 20.656 193.822 20.656C194.846 20.656 195.742 20.824 196.51 21.16C197.294 21.496 197.958 21.96 198.502 22.552C199.046 23.144 199.462 23.824 199.75 24.592C200.038 25.344 200.182 26.16 200.182 27.04C200.182 27.264 200.166 27.496 200.134 27.736C200.118 27.976 200.078 28.184 200.014 28.36H189.934V25.96H198.238L196.75 27.088C196.894 26.352 196.854 25.696 196.63 25.12C196.422 24.544 196.07 24.088 195.574 23.752C195.094 23.416 194.51 23.248 193.822 23.248C193.166 23.248 192.582 23.416 192.07 23.752C191.558 24.072 191.166 24.552 190.894 25.192C190.638 25.816 190.542 26.576 190.606 27.472C190.542 28.272 190.646 28.984 190.918 29.608C191.206 30.216 191.622 30.688 192.166 31.024C192.726 31.36 193.366 31.528 194.086 31.528C194.806 31.528 195.414 31.376 195.91 31.072C196.422 30.768 196.822 30.36 197.11 29.848L199.654 31.096C199.398 31.72 198.998 32.272 198.454 32.752C197.91 33.232 197.262 33.608 196.51 33.88C195.774 34.152 194.958 34.288 194.062 34.288ZM203.094 38.8V21.256H204.534V24.472L204.294 24.016C204.774 23.088 205.462 22.352 206.358 21.808C207.27 21.248 208.31 20.968 209.478 20.968C210.678 20.968 211.75 21.256 212.694 21.832C213.638 22.408 214.382 23.2 214.926 24.208C215.47 25.216 215.742 26.36 215.742 27.64C215.742 28.888 215.47 30.016 214.926 31.024C214.382 32.032 213.638 32.832 212.694 33.424C211.75 34 210.678 34.288 209.478 34.288C208.31 34.288 207.262 34.008 206.334 33.448C205.422 32.872 204.742 32.088 204.294 31.096L204.534 30.76V38.8H203.094ZM209.43 32.848C210.342 32.848 211.158 32.624 211.878 32.176C212.598 31.712 213.166 31.088 213.582 30.304C213.998 29.504 214.206 28.608 214.206 27.616C214.206 26.624 213.998 25.736 213.582 24.952C213.166 24.168 212.598 23.552 211.878 23.104C211.158 22.64 210.342 22.408 209.43 22.408C208.518 22.408 207.694 22.64 206.958 23.104C206.222 23.552 205.638 24.168 205.206 24.952C204.774 25.736 204.558 26.624 204.558 27.616C204.558 28.608 204.774 29.504 205.206 30.304C205.638 31.088 206.214 31.712 206.934 32.176C207.67 32.624 208.502 32.848 209.43 32.848ZM219.195 34V21.256H220.635V23.632L220.371 23.416C220.643 22.696 221.107 22.128 221.763 21.712C222.435 21.296 223.227 21.088 224.139 21.088H224.955V22.528H223.971C222.931 22.528 222.115 22.864 221.523 23.536C220.931 24.192 220.635 25.08 220.635 26.2V34H219.195ZM227.328 34V21.256H228.768V34H227.328ZM227.328 18.76V16.12H228.768V18.76H227.328ZM232.719 34V21.256H234.159V23.824L233.799 23.728C234.087 22.88 234.599 22.208 235.335 21.712C236.087 21.216 236.959 20.968 237.951 20.968C238.831 20.968 239.631 21.168 240.351 21.568C241.071 21.968 241.647 22.528 242.079 23.248C242.511 23.952 242.727 24.76 242.727 25.672V34H241.287V26.08C241.287 25.312 241.135 24.656 240.831 24.112C240.527 23.552 240.103 23.128 239.559 22.84C239.031 22.536 238.423 22.384 237.735 22.384C237.015 22.384 236.383 22.552 235.839 22.888C235.295 23.224 234.879 23.688 234.591 24.28C234.303 24.872 234.159 25.552 234.159 26.32V34H232.719ZM251.085 34.144C250.029 34.144 249.213 33.848 248.637 33.256C248.061 32.648 247.773 31.768 247.773 30.616V22.624H245.373V21.256H246.285C246.765 21.256 247.133 21.112 247.389 20.824C247.645 20.536 247.773 20.144 247.773 19.648V18.28H249.213V21.256H251.997V22.624H249.213V30.616C249.213 30.968 249.261 31.312 249.357 31.648C249.469 31.984 249.677 32.256 249.981 32.464C250.285 32.672 250.725 32.776 251.301 32.776C251.429 32.776 251.581 32.768 251.757 32.752C251.949 32.736 252.101 32.72 252.213 32.704V34C252.037 34.048 251.837 34.08 251.613 34.096C251.389 34.128 251.213 34.144 251.085 34.144Z" fill="black"/>
</svg>
